<?xml version="1.0" encoding="UTF-8" standalone="no"?>
<svg
   data-name="Layer 1"
   viewBox="0 0 58.039619 62.73597"
   x="0px"
   y="0px"
   version="1.1"
   id="svg4"
   sodipodi:docname="x.svg"
   width="58.039619"
   height="62.73597"
   inkscape:version="1.3.1 (9b9bdc1480, 2023-11-25, custom)"
   xmlns:inkscape="http://www.inkscape.org/namespaces/inkscape"
   xmlns:sodipodi="http://sodipodi.sourceforge.net/DTD/sodipodi-0.dtd"
   xmlns="http://www.w3.org/2000/svg"
   xmlns:svg="http://www.w3.org/2000/svg">
  <defs
     id="defs4" />
  <sodipodi:namedview
     id="namedview4"
     pagecolor="#ffffff"
     bordercolor="#000000"
     borderopacity="0.25"
     inkscape:showpageshadow="2"
     inkscape:pageopacity="0.0"
     inkscape:pagecheckerboard="0"
     inkscape:deskcolor="#d1d1d1"
     inkscape:zoom="10.0375"
     inkscape:cx="29.041096"
     inkscape:cy="33.325031"
     inkscape:window-width="1920"
     inkscape:window-height="1007"
     inkscape:window-x="0"
     inkscape:window-y="0"
     inkscape:window-maximized="1"
     inkscape:current-layer="svg4" />
  <path
     d="m 51.79496,3.38164 a 50.41419,50.41419 0 0 0 -7.47189,5.88731 37.68213,37.68213 0 0 0 -6.56467,8.08161 28.69142,28.69142 0 0 0 -3.51782,9.60982 31.52821,31.52821 0 0 0 -0.34259,7.059 10.29715,10.29715 0 0 0 -4.39293,0.30182 3.93551,3.93551 0 0 1 -1.62013,-0.14311 9.25834,9.25834 0 0 0 -3.7121,-0.16565 34.28545,34.28545 0 0 0 -0.24024,-6.1423 29.2722,29.2722 0 0 0 -3.86821,-10.896 A 39.11848,39.11848 0 0 0 12.50316,8.12584 47.15156,47.15156 0 0 0 7.8561,4.44238 48.44722,48.44722 0 0 0 0,0 c 0.26973,1.05378 0.4961,2.1171 0.732,3.1787 0.41891,2.01476 0.86731,4.02345 1.25413,6.04515 0.41284,2.66178 0.6765,5.34871 1.21684,7.99054 a 31.30224,31.30224 0 0 0 2.48745,7.61673 18.58947,18.58947 0 0 0 6.76938,7.9758 c 1.26107,0.8092 2.758,1.18908 3.94367,2.1223 a 8.40229,8.40229 0 0 1 2.46316,3.09458 c -0.06331,0.26973 -0.16826,0.52645 -0.24979,0.791 -1.22984,3.59154 -2.556,7.14838 -3.84565,10.71823 a 5.24854,5.24854 0 0 0 -0.34346,1.24546 6.12169,6.12169 0 0 0 1.28536,4.27758 c 0.49,0.66436 1.1622,1.15613 1.706,1.771 a 15.69018,15.69018 0 0 1 1.88293,2.89162 6.36029,6.36029 0 0 0 2.50393,2.54122 5.05337,5.05337 0 0 0 3.14834,0.37468 9.20436,9.20436 0 0 0 2.53687,-1.07021 c 0.50478,-0.2628 1.02343,-0.497 1.53254,-0.752 a 16.88059,16.88059 0 0 1 1.72768,0.81787 7.84963,7.84963 0 0 0 2.64964,1.04424 5.16589,5.16589 0 0 0 2.5499,-0.26366 5.7756,5.7756 0 0 0 2.69213,-2.4597 17.57341,17.57341 0 0 1 1.922,-3.0087 c 0.53947,-0.64528 1.24026,-1.13444 1.76151,-1.7962 a 6.59174,6.59174 0 0 0 0.94971,-1.6635 5.253,5.253 0 0 0 0.30789,-3.13793 c -0.18126,-0.61666 -0.42324,-1.21337 -0.63747,-1.81789 -1.2602,-3.50481 -2.536,-7.00354 -3.73291,-10.53089 0.21249,-0.32 0.36861,-0.673 0.58717,-0.9896 a 8.0066,8.0066 0 0 1 2.35475,-2.40593 19.41358,19.41358 0 0 1 2.27583,-1.18821 16.61411,16.61411 0 0 0 6.49527,-6.18565 29.34013,29.34013 0 0 0 3.84739,-9.84485 c 0.37034,-1.719 0.59411,-3.46491 0.8439,-5.20387 0.183,-1.18735 0.294,-2.38683 0.53513,-3.56464 q 0.89117,-4.3062 1.8864,-8.58812 a 50.38235,50.38235 0 0 0 -6.24466,3.35649 z m -33.37153,26.839 a 98.37618,98.37618 0 0 0 -4.739,-9.13018 C 11.44676,17.19016 9.11543,13.34537 6.86043,9.45461 6.458,8.71908 6.02434,8.00008 5.63318,7.25766 a 15.57871,15.57871 0 0 1 1.2073,1.07547 88.57815,88.57815 0 0 1 10.88476,12.7035 10.38162,10.38162 0 0 1 1.66956,3.11105 13.54032,13.54032 0 0 1 0.69037,2.60974 29.42026,29.42026 0 0 1 0.12143,4.157 19.77366,19.77366 0 0 0 0.06851,2.51434 c 0.08327,0.686 0.24892,1.35994 0.32265,2.04772 l -0.16132,0.02082 a 40.78934,40.78934 0 0 0 -2.01301,-5.27671 z m 3.03212,18.64112 c -1.11623,-0.438 -2.222,-0.90373 -3.33568,-1.3478 0.31743,-1.12663 0.53513,-2.27842 0.817,-3.4146 0.3981,-1.64269 0.77538,-3.28971 1.14659,-4.9376 1.58457,1.52907 3.17869,3.04859 4.71644,4.6245 0.20295,1.34173 0.34606,2.6956 0.51865,4.04254 0.111,0.915 0.2654,1.82395 0.35733,2.74157 -1.39203,-0.60457 -2.82308,-1.11628 -4.22033,-1.70866 z m 7.5777,11.7859 c -1.17435,-2.1388 -2.38511,-4.2585 -3.56032,-6.39729 a 2.08248,2.08248 0 0 1 0.43973,0.22984 c 1.02256,0.65048 2.1119,1.19428 3.13013,1.85084 1.18561,-0.6739 2.34694,-1.3929 3.52214,-2.085 -1.15785,2.14306 -2.35995,4.2645 -3.53168,6.40156 z m 10.96368,-13.0938 c -1.18735,0.425 -2.34,0.94537 -3.51869,1.3955 -1.36341,0.549 -2.73723,1.07287 -4.10238,1.61754 q 0.46444,-3.2368 0.84043,-6.48836 c 0.02081,-0.10407 0.0043,-0.22463 0.07285,-0.3131 1.55943,-1.54121 3.14574,-3.05553 4.7095,-4.59328 0.392,1.70254 0.79012,3.40593 1.20556,5.10413 0.2576,1.09363 0.56549,2.1769 0.79273,3.27752 z M 52.24163,7.47709 c -0.91155,1.50045 -1.77712,3.03038 -2.66786,4.54471 -1.97226,3.32267 -3.94626,6.64534 -5.8344,10.01744 a 86.69413,86.69413 0 0 0 -4.69736,9.556 27.87584,27.87584 0 0 0 -1.36775,3.8977 c -0.04857,-0.0035 -0.1457,-0.01128 -0.19427,-0.01475 a 22.56661,22.56661 0 0 0 0.37208,-2.83 c 0.07111,-2.31486 -0.26974,-4.67395 0.301,-6.95064 a 16.06654,16.06654 0 0 1 1.31219,-3.42417 c 0.4406,-0.75456 0.9844,-1.44147 1.48571,-2.15527 a 79.92807,79.92807 0 0 1 5.67308,-7.07466 c 1.34953,-1.50912 2.72856,-2.994 4.18738,-4.399 0.51258,-0.46227 0.98266,-0.97225 1.52994,-1.3955 -0.03209,0.07636 -0.06419,0.15269 -0.09974,0.22814 z"
     id="path1"
     style="fill:#440055" />
  <path
     d="m 20.50844,41.88767 c -0.30356,1.21944 -0.64614,2.438 -0.89593,3.66612 a 15.45684,15.45684 0 0 0 1.06852,1.59585 c 1.23679,0.39029 2.48832,0.74589 3.72338,1.14745 -0.32438,-1.392 -0.56289,-2.80835 -0.94711,-4.1813 -0.94797,-0.78665 -1.99828,-1.44408 -2.94886,-2.22812 z"
     id="path2"
     style="fill:#440055" />
  <path
     d="m 34.7948,43.97528 a 0.43625,0.43625 0 0 0 -0.19514,0.27668 c -0.34086,1.34 -0.58371,2.70167 -0.8968,4.04774 1.18041,-0.37295 2.37816,-0.69385 3.55077,-1.09282 a 0.68585,0.68585 0 0 0 0.32958,-0.19254 c 0.3209,-0.47008 0.57329,-0.987 0.93583,-1.42933 -0.268,-1.24372 -0.59845,-2.4727 -0.92543,-3.70168 -0.91068,0.72594 -1.87426,1.38423 -2.79881,2.09195 z"
     id="path3"
     style="fill:#440055" />
</svg>
