<svg xmlns="http://www.w3.org/2000/svg" viewBox="0 0 100 125" fill="none" x="0px" y="0px"><path fill-rule="evenodd" clip-rule="evenodd" d="M47 63C58.598 63 68 53.598 68 42C68 30.402 58.598 21 47 21C35.402 21 26 30.402 26 42C26 53.598 35.402 63 47 63ZM47 60C50.1927 60 53.1913 59.1688 55.7911 57.7109C55.4972 56.6035 55.6374 55.5323 55.9366 54.5707C56.2431 53.5855 56.7638 52.5844 57.2193 51.7086C57.3038 51.546 57.3861 51.3878 57.4644 51.2348C58.5547 49.1032 59.1072 47.5465 58.0657 45.7972C56.4618 43.1035 57.2663 40.3708 58.5612 38.3329C59.8102 36.3672 61.667 34.7617 63.045 33.8333C62.5412 32.8454 61.9488 31.9101 61.2783 31.0381C59.3098 32.0455 57.5913 32.5263 56.0942 32.4989C54.4233 32.4683 53.119 31.8029 52.2033 30.7464C51.3296 29.7384 50.8853 28.4659 50.674 27.2832C50.4946 26.2799 50.4676 25.2579 50.5311 24.3462C50.0036 24.2413 49.4677 24.1594 48.9246 24.1017C49.2224 24.9661 49.4494 25.9568 49.4926 26.9809C49.574 28.9119 48.9902 31.1064 46.8527 32.5973C45.4158 33.5995 44.9868 35.251 44.4625 37.7065L44.419 37.9108C43.9487 40.1223 43.3435 42.9686 40.9315 44.8912C40.6205 45.1392 40.5614 45.3019 40.5461 45.3584C40.5288 45.4221 40.5138 45.5533 40.6039 45.8173C40.8176 46.4433 41.3744 47.1821 42.1836 48.2302L42.2287 48.2887C42.9276 49.1936 43.8351 50.3687 44.2352 51.6046C44.4539 52.28 44.5512 53.0511 44.3494 53.8595C44.146 54.6738 43.6747 55.3836 42.9973 55.991C41.4298 57.3967 39.5196 57.6824 37.6797 57.4022C40.3984 59.0508 43.5883 60 47 60ZM59.16 28.7283C57.523 27.2276 55.6076 26.0258 53.5 25.2094C53.4984 25.7211 53.5367 26.2494 53.6272 26.7553C53.7837 27.6312 54.0753 28.3258 54.4703 28.7816C54.8234 29.1889 55.3207 29.4842 56.1492 29.4994C56.8549 29.5123 57.8371 29.3193 59.16 28.7283ZM65 42C65 47.4505 62.5774 52.3352 58.7502 55.6361C58.7657 55.5793 58.7827 55.5212 58.8011 55.4619C59.021 54.7554 59.3925 54.0379 59.8483 53.1575C59.9406 52.9792 60.0366 52.7939 60.1353 52.601C61.2169 50.4864 62.5878 47.5281 60.6433 44.2625C59.8585 42.9443 60.1045 41.4979 61.0933 39.9418C61.9194 38.6417 63.1495 37.4806 64.2039 36.6898C64.7214 38.3683 65 40.1516 65 42ZM30.9247 50.1071C30.979 50.1497 31.031 50.1966 31.0802 50.2477C32.5649 51.7887 34.5858 53.2571 36.5332 54.0009C38.513 54.7572 40.0111 54.6393 40.9944 53.7575C41.3168 53.4685 41.4077 53.2569 41.4387 53.1328C41.4712 53.0027 41.4748 52.8181 41.381 52.5286C41.165 51.8614 40.604 51.0934 39.8089 50.0635L39.6924 49.9128C39.0161 49.0391 38.1531 47.9242 37.7648 46.7864C37.5425 46.1353 37.4337 45.373 37.6507 44.573C37.8697 43.7658 38.373 43.0943 39.0616 42.5453C40.5733 41.3403 41.0069 39.5235 41.5286 37.08L41.5629 36.9193C42.0324 34.7146 42.6358 31.8809 45.1364 30.1367C46.1978 29.3964 46.5471 28.3371 46.4952 27.1072C46.4477 25.9803 46.0542 24.8384 45.656 24.0494C36.3426 24.7369 29 32.511 29 42C29 44.9164 29.6936 47.6707 30.9247 50.1071Z" fill="black"/><path fill-rule="evenodd" clip-rule="evenodd" d="M17 38.9022C17 21.8354 30.8354 8 47.9022 8C62.2122 8 74.6503 17.8248 77.9642 31.7458L82.0341 48.8421C82.782 51.9839 80.3996 55 77.17 55H76.9269C75.8491 55 74.9754 55.8737 74.9754 56.9515C74.9754 64.9697 69.9626 71.5764 63.1561 74.2373C61.3752 74.9335 60 76.5356 60 78.4477V92H31V74.0559C31 72.2518 29.7666 70.7132 28.1433 69.9259C21.4574 66.6833 17 59.0995 17 51.542V38.9022ZM47.9022 11C32.4922 11 20 23.4922 20 38.9022V51.542C20 58.0394 23.8786 64.5234 29.4525 67.2267C31.8178 68.3738 34 70.81 34 74.0559V89H57V78.4477C57 75.009 59.43 72.4728 62.0638 71.4432C67.7867 69.2059 71.9754 63.6641 71.9754 56.9515C71.9754 54.2169 74.1922 52 76.9269 52H77.17C78.4618 52 79.4148 50.7936 79.1156 49.5368L75.0458 32.4405C72.0536 19.871 60.823 11 47.9022 11Z" fill="black"/><text x="0" y="115" fill="#000000" font-size="5px" font-weight="bold" font-family="'Helvetica Neue', Helvetica, Arial-Unicode, Arial, Sans-serif">Created by WR Graphic Garage</text><text x="0" y="120" fill="#000000" font-size="5px" font-weight="bold" font-family="'Helvetica Neue', Helvetica, Arial-Unicode, Arial, Sans-serif">from the Noun Project</text></svg>