<svg xmlns="http://www.w3.org/2000/svg" version="1.1" viewBox="-5.0 -10.0 110.0 135.0">
 <path d="m84.648 17.941c-0.75391-1.7148-2.6602-2.6016-4.457-2.082h-0.14062c-1.0195 0.29297-1.8672 1.0078-2.3281 1.9609-0.46094 0.95313-0.49609 2.0586-0.09375 3.0391 6.9727 17.242 6.7812 36.551-0.52734 53.652-0.41406 0.95703-0.40234 2.0469 0.027344 2.9961 0.42969 0.94922 1.2383 1.6758 2.2305 2.0039h0.070313c1.8125 0.59766 3.7812-0.26562 4.5703-2 9.1055-18.77 9.3438-40.629 0.64844-59.59z"/>
 <path d="m18.922 37.602c-2 0.80859-3.9414 1.6289-5.8516 2.4492-2.4258 1.0469-4.0195 3.4141-4.0742 6.0586-0.054688 2.6445 1.4414 5.0742 3.8242 6.2188 1.9219 0.92188 3.8984 1.8398 5.8789 2.7617 0.30859 0.15234 0.67969 0.11328 0.94531-0.10156 0.26953-0.21484 0.39453-0.5625 0.31641-0.89844-0.26953-1.6797-0.44531-3.3711-0.51953-5.0703-0.14844-3.5078 0.085938-7.0234 0.69922-10.48 0.039063-0.3125-0.089844-0.625-0.33984-0.82031s-0.58594-0.23828-0.87891-0.11719z"/>
 <path d="m66.602 27.371c4.3281 13.023 4.2461 27.109-0.24219 40.078l-1.8398-0.67969c-6.5898-2.4688-13.34-5.1484-20.059-7.9492-2.4414-1.1484-3.7109-1.6484-5.1719-2.2383-1.4609-0.58984-3.0898-1.2383-6.5781-2.8086v-0.003907c-0.28125-1.6523-0.45703-3.3242-0.53125-5-0.13281-3.1055 0.09375-6.2148 0.67969-9.2695 10.828-4.2617 21.738-8.1992 32.48-11.711l1.2617-0.41016m1.0898-7.4297c-0.53906-0.003907-1.0703 0.078125-1.582 0.24219-1 0.30859-2 0.62109-3 0.94922-12.262 4-23.852 8.2617-34.82 12.621-0.9375 0.37891-1.6328 1.1914-1.8672 2.1797-1.6797 6.9609-1.7617 14.211-0.24219 21.207 0.21875 0.98047 0.89844 1.7969 1.8203 2.1914l1.1211 0.48828c7.8789 3.5781 7.5898 3.0781 12.488 5.3906 6.6016 2.7539 13.422 5.4531 20.461 8.1016 1.1914 0.44922 2.3711 0.87891 3.5391 1.3008 0.56641 0.20312 1.168 0.30859 1.7695 0.30859 2.2188 0.027343 4.2148-1.3359 5-3.4102 2.582-6.8945 4.0469-14.16 4.3398-21.52 0.38281-9.0469-1.0078-18.082-4.0898-26.602-0.75-2.0781-2.7266-3.4648-4.9375-3.457z"/>
 <path d="m37.398 57.051h-8.1484c0.3125 5.7656 1.3203 11.473 3 17 0.53516 1.7891 2.3125 2.9141 4.1602 2.6289h0.14062c1.0312-0.17188 1.9453-0.77344 2.5156-1.6523 0.57031-0.875 0.74609-1.9531 0.48438-2.9688-1.2539-4.9102-1.9727-9.9414-2.1523-15.008z"/>
<text x="0.0" y="117.5" font-size="5.0" font-weight="bold" font-family="Arbeit Regular, Helvetica, Arial-Unicode, Arial, Sans-serif" fill="#000000">Created by Rizalwale</text><text x="0.0" y="122.5" font-size="5.0" font-weight="bold" font-family="Arbeit Regular, Helvetica, Arial-Unicode, Arial, Sans-serif" fill="#000000">from Noun Project</text></svg>