<svg xmlns="http://www.w3.org/2000/svg" xmlns:xlink="http://www.w3.org/1999/xlink" version="1.1" x="0px" y="0px" viewBox="0 0 50 62.5" enable-background="new 0 0 50 50" xml:space="preserve"><g><g><rect x="6" y="7.758" fill="#000000" width="0" height="7"/><rect x="6" y="8" fill="#000000" width="8" height="7"/><rect x="14" y="15" fill="#000000" width="7" height="8"/><rect x="21" y="8" fill="#000000" width="8" height="7"/><rect x="6" y="22.758" fill="#000000" width="0" height="8"/><rect x="6" y="23" fill="#000000" width="8" height="8"/><rect x="21" y="23" fill="#000000" width="8" height="8"/><rect x="29" y="15" fill="#000000" width="7" height="8"/><rect x="36" y="8" fill="#000000" width="8" height="7"/><rect x="36" y="23" fill="#000000" width="8" height="8"/></g><path fill="#000000" d="M44,31H6V7h38V31z M7,30h36V8H7V30z"/><rect x="2" y="1" fill="#000000" width="5" height="48"/><rect x="44" y="1" fill="#000000" width="4" height="48"/></g><text x="0" y="65" fill="#000000" font-size="5px" font-weight="bold" font-family="'Helvetica Neue', Helvetica, Arial-Unicode, Arial, Sans-serif">Created by Mister Pixel</text><text x="0" y="70" fill="#000000" font-size="5px" font-weight="bold" font-family="'Helvetica Neue', Helvetica, Arial-Unicode, Arial, Sans-serif">from the Noun Project</text></svg>