<svg xmlns="http://www.w3.org/2000/svg" data-name="Layer 1" viewBox="0 0 64 80" x="0px" y="0px"><path d="M54.77516,4.02026a50.41419,50.41419,0,0,0-7.47189,5.88731,37.68213,37.68213,0,0,0-6.56467,8.08161A28.69142,28.69142,0,0,0,37.22078,27.599a31.52821,31.52821,0,0,0-.34259,7.059,10.29715,10.29715,0,0,0-4.39293.30182,3.93551,3.93551,0,0,1-1.62013-.14311,9.25834,9.25834,0,0,0-3.7121-.16565,34.28545,34.28545,0,0,0-.24024-6.1423,29.2722,29.2722,0,0,0-3.86821-10.896,39.11848,39.11848,0,0,0-7.56122-8.8483A47.15156,47.15156,0,0,0,10.8363,5.081,48.44722,48.44722,0,0,0,2.9802.63862c.26973,1.05378.4961,2.1171.732,3.1787.41891,2.01476.86731,4.02345,1.25413,6.04515.41284,2.66178.6765,5.34871,1.21684,7.99054a31.30224,31.30224,0,0,0,2.48745,7.61673A18.58947,18.58947,0,0,0,15.44,33.44554c1.26107.8092,2.758,1.18908,3.94367,2.1223a8.40229,8.40229,0,0,1,2.46316,3.09458c-.06331.26973-.16826.52645-.24979.791-1.22984,3.59154-2.556,7.14838-3.84565,10.71823a5.24854,5.24854,0,0,0-.34346,1.24546,6.12169,6.12169,0,0,0,1.28536,4.27758c.49.66436,1.1622,1.15613,1.706,1.771a15.69018,15.69018,0,0,1,1.88293,2.89162,6.36029,6.36029,0,0,0,2.50393,2.54122,5.05337,5.05337,0,0,0,3.14834.37468A9.20436,9.20436,0,0,0,30.47136,62.203c.50478-.2628,1.02343-.497,1.53254-.752a16.88059,16.88059,0,0,1,1.72768.81787,7.84963,7.84963,0,0,0,2.64964,1.04424,5.16589,5.16589,0,0,0,2.5499-.26366,5.7756,5.7756,0,0,0,2.69213-2.4597,17.57341,17.57341,0,0,1,1.922-3.0087c.53947-.64528,1.24026-1.13444,1.76151-1.7962a6.59174,6.59174,0,0,0,.94971-1.6635,5.253,5.253,0,0,0,.30789-3.13793c-.18126-.61666-.42324-1.21337-.63747-1.81789-1.2602-3.50481-2.536-7.00354-3.73291-10.53089.21249-.32.36861-.673.58717-.9896a8.0066,8.0066,0,0,1,2.35475-2.40593,19.41358,19.41358,0,0,1,2.27583-1.18821A16.61411,16.61411,0,0,0,53.907,27.86525a29.34013,29.34013,0,0,0,3.84739-9.84485c.37034-1.719.59411-3.46491.8439-5.20387.183-1.18735.294-2.38683.53513-3.56464q.89117-4.3062,1.8864-8.58812A50.38235,50.38235,0,0,0,54.77516,4.02026Zm-33.37153,26.839a98.37618,98.37618,0,0,0-4.739-9.13018c-2.23767-3.9003-4.569-7.74509-6.824-11.63585C9.4382,9.3577,9.00454,8.6387,8.61338,7.89628a15.57871,15.57871,0,0,1,1.2073,1.07547,88.57815,88.57815,0,0,1,10.88476,12.7035A10.38162,10.38162,0,0,1,22.375,24.7863a13.54032,13.54032,0,0,1,.69037,2.60974,29.42026,29.42026,0,0,1,.12143,4.157,19.77366,19.77366,0,0,0,.06851,2.51434c.08327.686.24892,1.35994.32265,2.04772l-.16132.02082A40.78934,40.78934,0,0,0,21.40363,30.85921Zm3.03212,18.64112c-1.11623-.438-2.222-.90373-3.33568-1.3478.31743-1.12663.53513-2.27842.817-3.4146.3981-1.64269.77538-3.28971,1.14659-4.9376,1.58457,1.52907,3.17869,3.04859,4.71644,4.6245.20295,1.34173.34606,2.6956.51865,4.04254.111.915.2654,1.82395.35733,2.74157C27.26405,50.60442,25.833,50.09271,24.43575,49.50033Zm7.5777,11.7859c-1.17435-2.1388-2.38511-4.2585-3.56032-6.39729a2.08248,2.08248,0,0,1,.43973.22984c1.02256.65048,2.1119,1.19428,3.13013,1.85084,1.18561-.6739,2.34694-1.3929,3.52214-2.085C34.38728,57.02773,33.18518,59.14917,32.01345,61.28623Zm10.96368-13.0938c-1.18735.425-2.34.94537-3.51869,1.3955-1.36341.549-2.73723,1.07287-4.10238,1.61754q.46444-3.2368.84043-6.48836c.02081-.10407.00433-.22463.07285-.3131,1.55943-1.54121,3.14574-3.05553,4.7095-4.59328.392,1.70254.79012,3.40593,1.20556,5.10413C42.442,46.00854,42.74989,47.09181,42.97713,48.19243ZM55.22183,8.11571c-.91155,1.50045-1.77712,3.03038-2.66786,4.54471-1.97226,3.32267-3.94626,6.64534-5.8344,10.01744a86.69413,86.69413,0,0,0-4.69736,9.556,27.87584,27.87584,0,0,0-1.36775,3.8977c-.04857-.00347-.1457-.01128-.19427-.01475a22.56661,22.56661,0,0,0,.37208-2.83c.07111-2.31486-.26974-4.67395.301-6.95064A16.06654,16.06654,0,0,1,42.44546,22.912c.4406-.75456.9844-1.44147,1.48571-2.15527a79.92807,79.92807,0,0,1,5.67308-7.07466c1.34953-1.50912,2.72856-2.994,4.18738-4.399.51258-.46227.98266-.97225,1.52994-1.3955C55.28948,7.96393,55.25738,8.04026,55.22183,8.11571Z"/><path d="M23.48864,42.52629c-.30356,1.21944-.64614,2.438-.89593,3.66612a15.45684,15.45684,0,0,0,1.06852,1.59585c1.23679.39029,2.48832.74589,3.72338,1.14745-.32438-1.392-.56289-2.80835-.94711-4.1813C25.48953,43.96776,24.43922,43.31033,23.48864,42.52629Z"/><path d="M37.775,44.6139a.43625.43625,0,0,0-.19514.27668c-.34086,1.34-.58371,2.70167-.8968,4.04774,1.18041-.37295,2.37816-.69385,3.55077-1.09282a.68585.68585,0,0,0,.32958-.19254c.3209-.47008.57329-.987.93583-1.42933-.268-1.24372-.59845-2.4727-.92543-3.70168C39.66313,43.24789,38.69955,43.90618,37.775,44.6139Z"/><text x="0" y="79" fill="#000000" font-size="5px" font-weight="bold" font-family="'Helvetica Neue', Helvetica, Arial-Unicode, Arial, Sans-serif">Created by Delwar Hossain</text><text x="0" y="84" fill="#000000" font-size="5px" font-weight="bold" font-family="'Helvetica Neue', Helvetica, Arial-Unicode, Arial, Sans-serif">from the Noun Project</text></svg>