<svg width="59.2" height="72.5" viewBox="0 0 59.2 72.5" xmlns="http://www.w3.org/2000/svg">
    <g id="svgGroup" stroke-linecap="round" fill-rule="evenodd" font-size="9pt" stroke="#000"
        stroke-width="0.25mm" fill="#000" style="stroke:#000;stroke-width:0.25mm;fill:#000">
        <path
            d="M 6.157 5.061 A 11.081 11.081 0 0 0 4.55 6.4 Q 2.6 8.4 1.45 11.1 Q 0.57 13.167 0.275 14.267 A 5.094 5.094 0 0 0 0.15 14.85 A 10.05 10.05 0 0 0 0.102 15.247 Q 0 16.243 0 17.85 Q 0 19.069 0.43 20.483 A 14.922 14.922 0 0 0 1.1 22.25 Q 2.2 24.7 3.55 25.8 Q 4.312 26.421 5.313 26.931 A 14.391 14.391 0 0 0 7 27.65 Q 8.46 28.172 9.485 28.331 A 5.363 5.363 0 0 0 10.3 28.4 A 12.614 12.614 0 0 0 10.474 28.399 Q 11.939 28.379 12.554 28.012 A 0.802 0.802 0 0 0 13 27.3 Q 13 27 12.2 26.1 Q 10 23.4 10 19.6 A 20.252 20.252 0 0 1 10.329 15.867 A 14.741 14.741 0 0 1 12.55 10.3 A 8.159 8.159 0 0 1 16.667 7.024 A 9.811 9.811 0 0 1 19.95 6.5 A 8.239 8.239 0 0 1 20.509 6.519 Q 24.9 6.817 26.5 11.9 A 16.76 16.76 0 0 1 27.057 14.041 A 19.901 19.901 0 0 1 27.4 17.8 Q 27.4 30.3 11.2 41.8 A 3.189 3.189 0 0 0 9.86 43.647 A 4.623 4.623 0 0 0 9.7 44.9 A 8.069 8.069 0 0 0 9.896 46.663 A 9.354 9.354 0 0 0 10.8 49.05 A 13.763 13.763 0 0 0 11.199 49.747 Q 11.64 50.463 12.117 51.024 A 6.848 6.848 0 0 0 13.25 52.1 A 8.655 8.655 0 0 0 13.932 52.555 Q 14.542 52.923 15.289 53.253 A 17.88 17.88 0 0 0 16.85 53.85 A 36.823 36.823 0 0 0 17.171 53.956 Q 19.166 54.6 20 54.6 A 6.732 6.732 0 0 0 20.648 54.572 Q 21.268 54.512 21.603 54.323 A 0.687 0.687 0 0 0 22 53.7 Q 22 53.6 20.6 51.6 Q 19.2 49.6 19.2 47.2 A 6.528 6.528 0 0 1 19.728 44.737 Q 20.68 42.401 23.35 39.661 A 39.501 39.501 0 0 1 26 37.2 A 86.223 86.223 0 0 0 26.788 36.545 A 95.875 95.875 0 0 0 31.6 32.2 A 21.682 21.682 0 0 0 33.897 29.589 A 26.724 26.724 0 0 0 36.4 25.5 A 20.76 20.76 0 0 0 37.695 22.3 A 15.324 15.324 0 0 0 38.4 17.8 Q 38.4 14.1 37.1 10.7 A 17.729 17.729 0 0 0 37.005 10.458 A 15.711 15.711 0 0 0 34.4 6.1 A 9.387 9.387 0 0 0 33.158 4.899 Q 32.349 4.243 31.304 3.642 A 21.498 21.498 0 0 0 29.1 2.55 A 15.823 15.823 0 0 0 27.59 1.992 Q 25.917 1.465 23.936 1.218 A 30.246 30.246 0 0 0 20.2 1 A 29.531 29.531 0 0 0 16.38 1.239 A 23.007 23.007 0 0 0 10.7 2.7 A 36.079 36.079 0 0 0 10.529 2.77 Q 7.888 3.855 6.157 5.061 Z M 59.2 2 L 59 3.2 A 108.557 108.557 0 0 0 56.996 14.335 Q 55.453 26.052 55.236 42.271 A 405.854 405.854 0 0 0 55.2 47.7 A 160.814 160.814 0 0 0 55.205 48.993 Q 55.218 50.612 55.267 51.427 A 9.67 9.67 0 0 0 55.3 51.85 A 11.778 11.778 0 0 1 55.326 52.131 Q 55.383 52.833 55.303 53.09 A 0.529 0.529 0 0 1 55.3 53.1 A 0.496 0.496 0 0 1 55.206 53.255 Q 55.019 53.479 54.499 53.801 A 9.709 9.709 0 0 1 54.25 53.95 A 3.627 3.627 0 0 1 53.371 54.306 Q 52.943 54.421 52.434 54.468 A 8.029 8.029 0 0 1 51.7 54.5 Q 48.256 54.5 48.104 52.273 A 2.964 2.964 0 0 1 48.1 52.2 A 736.557 736.557 0 0 0 47.971 37.841 Q 47.591 18.476 46.097 9.225 A 45.112 45.112 0 0 0 45.4 5.7 A 3.826 3.826 0 0 1 45.352 5.379 Q 45.3 4.919 45.3 4.2 A 1.422 1.422 0 0 1 45.539 3.439 Q 45.842 2.957 46.526 2.476 A 7.463 7.463 0 0 1 46.95 2.2 Q 48.6 1.2 50.8 0.8 Q 54.324 0.058 56.559 0.004 A 14.188 14.188 0 0 1 56.9 0 A 3.848 3.848 0 0 1 57.768 0.089 Q 59.2 0.422 59.2 2 Z M 15.2 62.7 L 17.6 62.6 Q 20 62.6 20.85 63.65 A 2.94 2.94 0 0 1 21.307 64.487 Q 21.7 65.549 21.7 67.35 A 9.689 9.689 0 0 1 21.604 68.765 Q 21.368 70.362 20.55 71.25 Q 19.57 72.315 16.993 72.473 A 15.479 15.479 0 0 1 16.05 72.5 Q 12.7 72.5 11.35 71.2 A 3.13 3.13 0 0 1 10.675 70.172 Q 10.003 68.619 10 65.532 A 28.158 28.158 0 0 1 10 65.5 A 22.729 22.729 0 0 1 10.038 64.118 Q 10.161 62.114 10.677 61.441 A 0.767 0.767 0 0 1 11.3 61.1 L 12.4 61.9 Q 13.472 62.68 15.113 62.7 A 7.129 7.129 0 0 0 15.2 62.7 Z M 51.3 62.7 L 53.7 62.6 Q 56.1 62.6 56.95 63.65 A 2.94 2.94 0 0 1 57.407 64.487 Q 57.8 65.549 57.8 67.35 A 9.689 9.689 0 0 1 57.704 68.765 Q 57.468 70.362 56.65 71.25 Q 55.67 72.315 53.093 72.473 A 15.479 15.479 0 0 1 52.15 72.5 Q 48.8 72.5 47.45 71.2 A 3.13 3.13 0 0 1 46.775 70.172 Q 46.103 68.619 46.1 65.532 A 28.158 28.158 0 0 1 46.1 65.5 A 22.729 22.729 0 0 1 46.138 64.118 Q 46.261 62.114 46.777 61.441 A 0.767 0.767 0 0 1 47.4 61.1 L 48.5 61.9 Q 49.572 62.68 51.213 62.7 A 7.129 7.129 0 0 0 51.3 62.7 Z"
            vector-effect="non-scaling-stroke" />
    </g>
</svg>
